<svg xmlns="http://www.w3.org/2000/svg" viewBox="0 0 393 852" width="393" height="852" role="img" aria-labelledby="c3s-title">
  <title id="c3s-title">what2eat Splash - Bowl</title>
  <defs>
    <linearGradient id="c3s-bg" x1="0%" y1="0%" x2="0%" y2="100%">
      <stop offset="0%" style="stop-color:#222222"/>
      <stop offset="100%" style="stop-color:#1a1a1a"/>
    </linearGradient>
    <linearGradient id="c3s-bowl" x1="0%" y1="0%" x2="100%" y2="100%">
      <stop offset="0%" style="stop-color:#c47a5a"/>
      <stop offset="100%" style="stop-color:#c74b3f"/>
    </linearGradient>
    <linearGradient id="c3s-gold" x1="0%" y1="0%" x2="100%" y2="0%">
      <stop offset="0%" style="stop-color:#d4a843"/>
      <stop offset="100%" style="stop-color:#e8c05a"/>
    </linearGradient>
    <radialGradient id="c3s-glow" cx="50%" cy="40%" r="30%">
      <stop offset="0%" style="stop-color:#c47a5a;stop-opacity:0.06"/>
      <stop offset="100%" style="stop-color:#1a1a1a;stop-opacity:0"/>
    </radialGradient>
  </defs>

  <rect width="393" height="852" fill="url(#c3s-bg)"/>
  <rect width="393" height="852" fill="url(#c3s-glow)"/>

  <!-- Bowl centered -->
  <g transform="translate(196, 350)">
    <path d="M-90,12 Q-90,85 0,92 Q90,85 90,12"
          fill="none" stroke="url(#c3s-bowl)" stroke-width="9" stroke-linecap="round"/>
    <path d="M-100,12 L100,12"
          fill="none" stroke="url(#c3s-bowl)" stroke-width="9" stroke-linecap="round"/>

    <path d="M-25,-20 C-25,-40 -12,-40 -12,-60 C-12,-80 -25,-80 -25,-100"
          fill="none" stroke="#d4a843" stroke-width="5" stroke-linecap="round" opacity="0.45"/>
    <path d="M10,-15 C10,-35 23,-35 23,-55 C23,-75 10,-75 10,-95"
          fill="none" stroke="#d4a843" stroke-width="5" stroke-linecap="round" opacity="0.3"/>
    <path d="M40,-10 C40,-25 48,-28 48,-43 C48,-58 40,-58 40,-73"
          fill="none" stroke="#d4a843" stroke-width="3.5" stroke-linecap="round" opacity="0.2"/>
  </g>

  <!-- Wordmark -->
  <text x="138" y="500" font-family="'DM Sans', sans-serif" font-size="44" font-weight="300" fill="#a89f95" letter-spacing="1">what</text>
  <text x="222" y="500" font-family="'Playfair Display', Georgia, serif" font-size="50" font-weight="700" fill="url(#c3s-gold)">2</text>
  <text x="254" y="500" font-family="'DM Sans', sans-serif" font-size="44" font-weight="300" fill="#a89f95" letter-spacing="1">eat</text>

  <text x="196" y="535" text-anchor="middle" font-family="'DM Sans', sans-serif" font-size="13" fill="#6b6560" letter-spacing="4">
    WAS KOCHEN WIR HEUTE?
  </text>
</svg>
